# xmcd
#
# Track frame offsets: 
#        182
#        28852
#        50355
#        77845
#        101780
#        135112
#
# Disc length: 2148 seconds
#
# Revision: 2
# Processed by: cddbd v1.5.2PL0 Copyright (c) Steve Scherf et al.
# Submitted via: ExactAudioCopy v0.99pb5
#
DISCID=44086206
DTITLE=Miles Davis - The Musings of Miles (DCC GZS 1106)
DYEAR=1955
DGENRE=Jazz
TTITLE0=Will You Still Be Mine?
TTITLE1=I See Your Face Before Me
TTITLE2=I Didn't
TTITLE3=A Gal in Calico
TTITLE4=A Night In Tunisia
TTITLE5=Green Haze
EXTD=YEAR: 1955
EXTT0=
EXTT1=
EXTT2=
EXTT3=
EXTT4=
EXTT5=
PLAYORDER=
